PathFileType	4	(X/Y/Z)	./resultDataOpenSim/trcMotMarkerGrf/sub09/qtm-05-04.trc
DataRate	CameraRate	NumFrames	NumMarkers	Units	OrigDataRate	OrigDataStartFrame	OrigNumFrames
250.000000	250.000000	7	24	m	250.000000	478	636
Frame#	Time	L.Toe.Tip			R.Toe.Tip			L.Ankle.Lat			R.Ankle.Lat			L.Ankle.Med			R.Ankle.Med			L.Heel			R.Heel			L.Knee.Lat			R.Knee.Lat			L.Knee.Med			R.Knee.Med			L.Thigh.Upper			R.Thigh.Upper			L.ASIS			R.ASIS			V.Sacral			L.Acromium			R.Acromium			C7			L.Elbow			R.Elbow			L.Wrist.Lat			R.Wrist.Lat
		X1	Y1	Z1	X2	Y2	Z2	X3	Y3	Z3	X4	Y4	Z4	X5	Y5	Z5	X6	Y6	Z6	X7	Y7	Z7	X8	Y8	Z8	X9	Y9	Z9	X10	Y10	Z10	X11	Y11	Z11	X12	Y12	Z12	X13	Y13	Z13	X14	Y14	Z14	X15	Y15	Z15	X16	Y16	Z16	X17	Y17	Z17	X18	Y18	Z18	X19	Y19	Z19	X20	Y20	Z20	X21	Y21	Z21	X22	Y22	Z22	X23	Y23	Z23	X24	Y24	Z24

478	1.908	1.7034392	0.039801071	0.013166704	1.0169803	0.04974088	0.12765043	1.5520551	0.072596455	-0.025533504	0.923259	0.16909624	0.18258158	1.5732251	0.089678705	0.069661142	NaN	NaN	NaN	1.4820748	0.037161149	0.017351089	0.87392244	0.19888618	0.12493365	1.5380422	0.48691252	-0.066233068	1.2783916	0.4711081	0.2388144	1.5360722	0.48415708	0.057218545	1.2809854	0.4485547	0.11361063	1.3697743	0.87248914	-0.11272259	1.3165881	0.86618227	0.25786938	1.4323504	0.9656201	-0.043209153	1.4158721	0.95541341	0.19744458	1.252526	1.0038076	0.061920966	1.3680659	1.4090769	-0.10552634	1.3504719	1.4287308	0.22670145	1.285173	1.4605936	0.05650342	1.2372895	1.0664165	-0.15576196	1.2345961	1.0778085	0.30948039	1.3535372	0.83630251	-0.21348189	1.4207851	0.87184328	0.32726494
479	1.912	1.7035313	0.039674936	0.013319662	1.0190202	0.050890908	0.12866206	1.55231	0.072576038	-0.025428374	0.92943026	0.1727717	0.18433891	1.5732675	0.089593263	0.069764435	NaN	NaN	NaN	1.4822617	0.036968903	0.017572608	0.88031076	0.20399165	0.12661458	1.5418709	0.48723923	-0.066407847	1.2856506	0.47134132	0.23995032	1.5385272	0.48453162	0.057204647	1.2902129	0.44795805	0.11471566	1.3754088	0.87303393	-0.11334075	1.3213547	0.86667281	0.25720181	1.4374848	0.96597225	-0.043619084	1.4200421	0.95620908	0.19705571	1.2574762	1.0046404	0.060906602	1.373079	1.4098077	-0.10573415	1.3552837	1.4294256	0.22650239	1.2900579	1.4613931	0.056273313	1.242605	1.0668867	-0.15619569	1.2391317	1.0789256	0.30945298	1.3602896	0.83716575	-0.21322746	1.4238206	0.87174467	0.32772422
480	1.916	1.7036167	0.039550088	0.013447653	1.0214449	0.052241917	0.12959976	1.55263	0.072505992	-0.025388622	0.93657299	0.17610422	0.18615915	1.5733531	0.08954506	0.069847713	NaN	NaN	NaN	1.4824189	0.03680039	0.01775339	0.88683602	0.20902933	0.12846935	1.5454778	0.48761841	-0.066658701	1.2928429	0.47166212	0.24106188	1.540805	0.48495713	0.057200689	1.2992238	0.4475594	0.11574357	1.3809355	0.87374877	-0.11391463	1.3258283	0.86724541	0.25659288	1.4426083	0.96633992	-0.043949409	1.4243869	0.95699612	0.1967186	1.2623518	1.0055083	0.059933069	1.3780561	1.4105465	-0.10592713	1.3600572	1.4301264	0.22632138	1.294922	1.4622167	0.056054919	1.2478962	1.067358	-0.15667223	1.2436029	1.0799977	0.30941928	1.3670558	0.8380615	-0.21295692	1.4268509	0.87165457	0.32817789
481	1.92	1.7037023	0.039436896	0.013535283	1.0242422	0.05377346	0.1305082	1.5529774	0.072407727	-0.025415243	0.94449476	0.17919367	0.18801994	1.5734907	0.089520558	0.069915411	NaN	NaN	NaN	1.4825126	0.036732538	0.017839548	0.89346731	0.21398469	0.1304942	1.5487885	0.4879936	-0.066879102	1.3002612	0.47204925	0.2420334	1.5429815	0.48537087	0.057196933	1.3080609	0.44737131	0.11667982	1.3862766	0.8746299	-0.11442453	1.3300673	0.86789047	0.25602912	1.4477043	0.96675859	-0.044194153	1.4287445	0.95779215	0.1964368	1.2671606	1.0064137	0.059024539	1.3829953	1.4113046	-0.10611134	1.3647819	1.4308353	0.22616612	1.2997651	1.4630791	0.055843	1.253165	1.0678381	-0.15717241	1.248045	1.0810539	0.3093772	1.3738295	0.83899597	-0.21266724	1.4298486	0.87156866	0.32863144
482	1.924	1.7037822	0.039343711	0.013595771	1.0273904	0.055463107	0.13145705	1.5532555	0.072348192	-0.025475657	0.95253065	0.18232204	0.18987108	1.573659	0.089511166	0.069969084	NaN	NaN	NaN	1.4825527	0.036746106	0.01784038	0.9002017	0.21885544	0.13265737	1.5517833	0.48831643	-0.067007637	1.3079528	0.47248177	0.24281247	1.5451115	0.48573092	0.057184063	1.3167547	0.4474008	0.11755113	1.3913713	0.87566412	-0.1148452	1.3341247	0.86859516	0.25549366	1.4527481	0.96727356	-0.044363347	1.4330403	0.95860369	0.19620646	1.2719146	1.0073543	0.058216169	1.3878996	1.4120937	-0.10628858	1.3694554	1.4315557	0.22603416	1.3045867	1.4639846	0.055638999	1.2584137	1.0683342	-0.15768354	1.2524809	1.0821135	0.30932526	1.3806097	0.83997485	-0.21236066	1.4328047	0.87149455	0.32907768
483	1.928	1.7038473	0.039275435	0.013652306	1.0309231	0.057320615	0.13249858	1.5534069	0.072378282	-0.025568384	0.9601159	0.18566841	0.19167204	1.5738193	0.089511926	0.07000734	NaN	NaN	NaN	1.4825637	0.036792493	0.017796489	0.9070601	0.22364416	0.13490019	1.554492	0.48856628	-0.067058142	1.3158397	0.47296403	0.24344549	1.5472305	0.48601679	0.057152876	1.3253004	0.44762994	0.11837406	1.3962476	0.87682698	-0.11518493	1.3380897	0.86934484	0.25496415	1.4577315	0.96791678	-0.044465887	1.4372572	0.95943216	0.19602592	1.2766171	1.0083259	0.057499006	1.3927736	1.4129253	-0.10645215	1.3740914	1.4322927	0.22591359	1.309384	1.4649198	0.055442528	1.2636503	1.0688552	-0.15819889	1.2569156	1.0831854	0.30926687	1.3874002	0.84100413	-0.21204098	1.4357322	0.87144737	0.32950145
484	1.932	1.7038925	0.039230048	0.013716086	1.0349177	0.059381804	0.13366414	1.5534519	0.072494996	-0.025737409	0.96719326	0.18918451	0.19340406	1.5739407	0.089518235	0.070027791	NaN	NaN	NaN	1.4825588	0.0368435	0.017740772	0.9140637	0.22834883	0.13715341	1.5569691	0.48874353	-0.067085598	1.323939	0.47351435	0.24402499	1.5493535	0.48623194	0.057094702	1.3337261	0.44804352	0.11914571	1.4010052	0.87808584	-0.11549352	1.3420699	0.87013058	0.25442072	1.462662	0.96869315	-0.044504239	1.4413876	0.96027758	0.19589453	1.2812589	1.0093293	0.056826148	1.3976211	1.4138067	-0.10659819	1.3787114	1.4330465	0.22579078	1.3141584	1.4658718	0.055251416	1.2688907	1.0694117	-0.15870788	1.2613392	1.084275	0.30921016	1.3942061	0.84208953	-0.21170991	1.4386336	0.87144185	0.32989755
